HIERARCHY
ROOT Hips
{
	OFFSET 0.00 0.00 0.00
	CHANNELS 6 Xposition Yposition Zposition Xrotation Yrotation Zrotation
	JOINT Spine
	{
		OFFSET 0.00000 1.70439 2.55658
		CHANNELS 3 Xrotation Yrotation Zrotation
		JOINT Spine1
		{
			OFFSET 0.00000 0.59193 3.35699
			CHANNELS 3 Xrotation Yrotation Zrotation
			JOINT Spine2
			{
				OFFSET 0.00000 0.29710 3.39581
				CHANNELS 3 Xrotation Yrotation Zrotation
				JOINT Spine3
				{
					OFFSET 0.00000 0.00000 3.40878
					CHANNELS 3 Xrotation Yrotation Zrotation
					JOINT Neck
					{
						OFFSET 0.00000 -1.27828 8.94804
						CHANNELS 3 Xrotation Yrotation Zrotation
						JOINT Head
						{
							OFFSET 0.00000 -0.81390 4.61586
							CHANNELS 3 Xrotation Yrotation Zrotation
							End Site
							{
								OFFSET 0.00000 0.00001 5.51796
							}
						}
					}
					JOINT RightShoulder
					{
						OFFSET -1.18875 -1.98124 6.41925
						CHANNELS 3 Xrotation Yrotation Zrotation
						JOINT RightArm
						{
							OFFSET -5.90412 0.00000 0.00000
							CHANNELS 3 Xrotation Yrotation Zrotation
							JOINT RightForeArm
							{
								OFFSET -11.94674 0.00000 0.00000
								CHANNELS 3 Xrotation Yrotation Zrotation
								JOINT RightHand
								{
									OFFSET -10.17720 0.00000 0.00000
									CHANNELS 3 Xrotation Yrotation Zrotation
									JOINT RightHandEnd
									{
										OFFSET -2.84518 0.00000 0.00000
										CHANNELS 3 Xrotation Yrotation Zrotation
										End Site
										{
											OFFSET -2.84518 0.00000 0.00000
										}
									}
									JOINT RightHandThumb1
									{
										OFFSET -1.13807 -1.89679 -0.75871
										CHANNELS 3 Yrotation Xrotation Zrotation
										End Site
										{
											OFFSET -2.74823 -0.73639 0.00000
										}
									}
								}
							}
						}
					}
					JOINT LeftShoulder
					{
						OFFSET 1.18875 -1.98124 6.41925
						CHANNELS 3 Xrotation Yrotation Zrotation
						JOINT LeftArm
						{
							OFFSET 5.90412 0.00000 0.00000
							CHANNELS 3 Xrotation Yrotation Zrotation
							JOINT LeftForeArm
							{
								OFFSET 11.94674 0.00000 0.00000
								CHANNELS 3 Xrotation Yrotation Zrotation
								JOINT LeftHand
								{
									OFFSET 10.17720 0.00000 0.00000
									CHANNELS 3 Xrotation Yrotation Zrotation
									JOINT LeftHandEnd
									{
										OFFSET 2.84518 0.00000 0.00000
										CHANNELS 3 Xrotation Yrotation Zrotation
										End Site
										{
											OFFSET 2.84518 0.00000 0.00000
										}
									}
									JOINT LeftHandThumb1
									{
										OFFSET 1.13807 -1.89679 -0.75871
										CHANNELS 3 Yrotation Xrotation Zrotation
										End Site
										{
											OFFSET 2.74823 -0.73639 0.00000
										}
									}
								}
							}
						}
					}
				}
			}
		}
	}
	JOINT RightUpLeg
	{
		OFFSET -3.52662 0.00000 -1.03025
		CHANNELS 3 Xrotation Yrotation Zrotation
		JOINT RightLeg
		{
			OFFSET 0.00001 0.00000 -17.80159
			CHANNELS 3 Xrotation Yrotation Zrotation
			JOINT RightFoot
			{
				OFFSET 0.00001 0.00000 -16.85992
				CHANNELS 3 Xrotation Yrotation Zrotation
				JOINT RightToeBase
				{
					OFFSET 0.00000 -5.42953 -1.97619
					CHANNELS 3 Xrotation Yrotation Zrotation
					End Site
					{
						OFFSET 0.00000 -2.85300 -0.00000
					}
				}
			}
		}
	}
	JOINT LeftUpLeg
	{
		OFFSET 3.52662 0.00000 -1.03025
		CHANNELS 3 Xrotation Yrotation Zrotation
		JOINT LeftLeg
		{
			OFFSET 0.00001 0.00000 -17.80159
			CHANNELS 3 Xrotation Yrotation Zrotation
			JOINT LeftFoot
			{
				OFFSET 0.00001 0.00000 -16.85992
				CHANNELS 3 Xrotation Yrotation Zrotation
				JOINT LeftToeBase
				{
					OFFSET 0.00000 -5.42953 -1.97619
					CHANNELS 3 Xrotation Yrotation Zrotation
					End Site
					{
						OFFSET 0.00000 -2.85300 -0.00000
					}
				}
			}
		}
	}
}
MOTION
Frames: 18
Frame Time: 0.008342
 7.4362 -16.0584 37.8505 4.8381 1.4847 -177.1056 1.3666 -0.4280 -0.5415 0.8247 -0.2905 -0.1750 1.2685 -2.1831 -1.5969 -0.4323 0.2505 0.3974 -1.4513 0.1654 -2.3480 -4.3193 1.4450 0.8951 -2.6850 13.7992 -1.8646 -3.5093 4.9197 -1.2954 0.0000 0.0000 8.6578 -1.6030 17.1032 -12.5377 0.0000 0.0000 0.0000 0.0000 0.0000 0.0000 -4.8850 -10.4435 -4.2660 7.3719 2.9690 1.2250 -0.0000 -0.0000 -11.5760 -1.7474 -19.2073 2.4662 -0.0000 -0.0000 0.0000 0.0000 0.0000 0.0000 1.9050 10.5099 -36.6154 16.4984 0.0000 0.0000 -11.7125 -4.2210 -5.0047 -3.3149 0.0000 -0.0000 2.5727 -5.3028 8.6440 11.6563 0.0000 0.0000 -7.7538 16.8078 5.0342 -3.9503 0.0000 -0.0000
 7.4233 -16.0452 37.8562 4.8173 1.4402 -177.1019 1.3265 -0.4465 -0.5429 0.8174 -0.2941 -0.1759 1.2827 -2.1834 -1.6104 -0.4282 0.2510 0.3934 -1.4797 0.1843 -2.3339 -4.3564 1.4510 0.8959 -2.6387 13.8421 -1.8504 -3.4918 4.8517 -1.3122 0.0000 0.0000 8.6299 -1.5722 17.0502 -12.5766 0.0000 0.0000 0.0000 0.0000 -0.0000 0.0000 -4.8837 -10.4215 -4.2556 7.3956 3.0511 1.2192 -0.0000 -0.0000 -11.5438 -1.7829 -19.1245 2.4450 0.0000 -0.0000 -0.0000 0.0000 0.0000 0.0000 1.9764 10.4043 -36.5831 16.2725 0.0000 0.0000 -11.5776 -4.1893 -5.0984 -2.8077 0.0000 -0.0000 2.5963 -5.3235 8.6814 11.6051 0.0000 0.0000 -7.7349 16.7849 5.0174 -3.9645 0.0000 -0.0000
 7.4071 -16.0273 37.8634 4.8094 1.3856 -177.0958 1.2945 -0.4712 -0.5457 0.8070 -0.2937 -0.1783 1.3006 -2.1833 -1.6264 -0.4226 0.2528 0.3859 -1.5135 0.2037 -2.3164 -4.4030 1.4586 0.8983 -2.5809 13.8948 -1.8312 -3.4651 4.7638 -1.3298 0.0000 0.0000 8.5902 -1.5342 16.9621 -12.6255 0.0000 0.0000 0.0000 -0.0000 -0.0000 0.0000 -4.8819 -10.3985 -4.2422 7.4263 3.1575 1.2118 -0.0000 -0.0000 -11.4988 -1.8263 -19.0098 2.4163 0.0000 0.0000 0.0000 0.0000 0.0000 0.0000 2.0959 10.2801 -36.5879 15.9840 0.0000 0.0000 -11.3998 -4.1943 -5.1724 -2.2016 0.0000 -0.0000 2.6551 -5.3493 8.7407 11.5242 0.0000 0.0000 -7.7039 16.7582 4.9827 -3.9781 0.0000 -0.0000
 7.3875 -16.0059 37.8718 4.7970 1.3269 -177.0876 1.2537 -0.4980 -0.5499 0.7951 -0.2883 -0.1793 1.3216 -2.1805 -1.6488 -0.4153 0.2555 0.3767 -1.5527 0.2224 -2.2962 -4.4608 1.4683 0.9026 -2.5158 13.9526 -1.8068 -3.4292 4.6612 -1.3472 0.0000 0.0000 8.5401 -1.4897 16.8384 -12.6830 -0.0000 0.0000 -0.0000 -0.0000 -0.0000 0.0000 -4.8816 -10.3710 -4.2259 7.4631 3.2817 1.2039 -0.0000 -0.0000 -11.4424 -1.8755 -18.8672 2.3799 -0.0000 -0.0000 0.0000 -0.0000 -0.0000 0.0000 2.2391 10.1521 -36.6390 15.6501 0.0000 0.0000 -11.1856 -4.2468 -5.2128 -1.5247 0.0000 -0.0000 2.7277 -5.3728 8.8162 11.4173 0.0000 0.0000 -7.6626 16.7274 4.9358 -3.9894 0.0000 -0.0000
 7.3651 -15.9814 37.8811 4.7851 1.2658 -177.0762 1.2108 -0.5257 -0.5564 0.7807 -0.2796 -0.1807 1.3462 -2.1726 -1.6754 -0.4070 0.2591 0.3647 -1.5956 0.2378 -2.2739 -4.5270 1.4797 0.9091 -2.4472 14.0105 -1.7770 -3.3818 4.5496 -1.3624 0.0000 0.0000 8.4805 -1.4442 16.6774 -12.7476 0.0000 -0.0000 0.0000 0.0000 -0.0000 0.0000 -4.8823 -10.3403 -4.2054 7.5059 3.4184 1.1946 -0.0000 -0.0000 -11.3764 -1.9297 -18.7008 2.3374 0.0000 -0.0000 -0.0000 -0.0000 0.0000 0.0000 2.4101 10.0257 -36.7533 15.2785 0.0000 0.0000 -10.9387 -4.3566 -5.2007 -0.8125 0.0000 -0.0000 2.8186 -5.3939 8.9083 11.2848 0.0000 0.0000 -7.6111 16.6940 4.8735 -3.9974 0.0000 -0.0000
 7.3411 -15.9549 37.8906 4.7635 1.1988 -177.0624 1.1562 -0.5559 -0.5624 0.7663 -0.2710 -0.1823 1.3725 -2.1580 -1.7061 -0.3977 0.2639 0.3504 -1.6415 0.2479 -2.2520 -4.6008 1.4921 0.9176 -2.3796 14.0622 -1.7429 -3.3255 4.4358 -1.3761 0.0000 0.0000 8.4166 -1.3956 16.4860 -12.8176 0.0000 0.0000 0.0000 -0.0000 -0.0000 0.0000 -4.8865 -10.3040 -4.1826 7.5530 3.5584 1.1853 -0.0000 -0.0000 -11.3042 -1.9852 -18.5202 2.2890 0.0000 -0.0000 -0.0000 -0.0000 -0.0000 -0.0000 2.5917 9.8999 -36.9308 14.8811 0.0000 0.0000 -10.6644 -4.5272 -5.1313 -0.1042 0.0000 -0.0000 2.9098 -5.4189 9.0197 11.1376 0.0000 0.0000 -7.5541 16.6604 4.7920 -4.0009 0.0000 -0.0000
 7.3158 -15.9268 37.9001 4.7494 1.1375 -177.0458 1.1119 -0.5828 -0.5702 0.7505 -0.2582 -0.1832 1.3975 -2.1381 -1.7398 -0.3886 0.2711 0.3339 -1.6872 0.2525 -2.2298 -4.6768 1.5038 0.9264 -2.3159 14.1077 -1.7050 -3.2592 4.3226 -1.3862 0.0000 0.0000 8.3495 -1.3487 16.2690 -12.8884 0.0000 -0.0000 -0.0000 -0.0000 0.0000 0.0000 -4.8915 -10.2650 -4.1573 7.6015 3.6969 1.1761 -0.0000 -0.0000 -11.2297 -2.0393 -18.3335 2.2382 -0.0000 -0.0000 0.0000 0.0000 -0.0000 -0.0000 2.7977 9.7926 -37.1918 14.4749 0.0000 0.0000 -10.3733 -4.7606 -4.9804 0.5633 0.0000 0.0000 3.0207 -5.4354 9.1380 10.9721 0.0000 0.0000 -7.4916 16.6264 4.7019 -3.9996 0.0000 -0.0000
 7.2905 -15.8985 37.9090 4.7309 1.0771 -177.0270 1.0661 -0.6097 -0.5780 0.7364 -0.2453 -0.1839 1.4202 -2.1098 -1.7741 -0.3800 0.2799 0.3156 -1.7319 0.2502 -2.2104 -4.7538 1.5142 0.9353 -2.2601 14.1392 -1.6657 -3.1858 4.2194 -1.3932 0.0000 0.0000 8.2851 -1.3045 16.0375 -12.9581 0.0000 0.0000 0.0000 0.0000 -0.0000 -0.0000 -4.9002 -10.2206 -4.1308 7.6508 3.8240 1.1671 -0.0000 -0.0000 -11.1573 -2.0903 -18.1537 2.1858 0.0000 -0.0000 -0.0000 0.0000 -0.0000 0.0000 3.0071 9.6993 -37.5277 14.0727 0.0000 0.0000 -10.0721 -5.0494 -4.7522 1.1566 0.0000 0.0000 3.1289 -5.4516 9.2634 10.8034 0.0000 0.0000 -7.4299 16.5943 4.6014 -3.9933 0.0000 -0.0000
 7.2658 -15.8710 37.9170 4.7116 1.0219 -177.0077 1.0244 -0.6340 -0.5848 0.7244 -0.2320 -0.1850 1.4395 -2.0744 -1.8076 -0.3732 0.2906 0.2959 -1.7741 0.2417 -2.1937 -4.8277 1.5212 0.9427 -2.2166 14.1546 -1.6246 -3.1033 4.1316 -1.3975 0.0000 0.0000 8.2256 -1.2667 15.8020 -13.0210 0.0000 0.0000 -0.0000 0.0000 -0.0000 -0.0000 -4.9111 -10.1713 -4.1032 7.6964 3.9336 1.1595 -0.0000 -0.0000 -11.0920 -2.1365 -17.9913 2.1329 0.0000 -0.0000 -0.0000 0.0000 0.0000 0.0000 3.2159 9.6261 -37.9342 13.6893 0.0000 0.0000 -9.7707 -5.3830 -4.4461 1.6517 0.0000 0.0000 3.2347 -5.4638 9.3886 10.6365 0.0000 0.0000 -7.3720 16.5645 4.4977 -3.9827 0.0000 -0.0000
 7.2423 -15.8448 37.9238 4.6975 0.9743 -176.9880 0.9965 -0.6555 -0.5918 0.7146 -0.2185 -0.1852 1.4518 -2.0313 -1.8370 -0.3680 0.3033 0.2749 -1.8123 0.2279 -2.1804 -4.8957 1.5239 0.9471 -2.1845 14.1538 -1.5857 -3.0162 4.0608 -1.3985 0.0000 0.0000 8.1752 -1.2352 15.5745 -13.0765 0.0000 0.0000 -0.0000 -0.0000 0.0000 0.0000 -4.9246 -10.1184 -4.0767 7.7374 4.0223 1.1535 -0.0000 -0.0000 -11.0377 -2.1760 -17.8568 2.0841 0.0000 0.0000 0.0000 -0.0000 0.0000 0.0000 3.4237 9.5752 -38.4037 13.3359 0.0000 0.0000 -9.4774 -5.7471 -4.0677 2.0330 0.0000 0.0000 3.3390 -5.4708 9.5048 10.4792 0.0000 0.0000 -7.3222 16.5373 4.3986 -3.9688 0.0000 -0.0000
 7.2208 -15.8209 37.9291 4.6852 0.9334 -176.9701 0.9793 -0.6749 -0.5984 0.7079 -0.2066 -0.1853 1.4579 -1.9808 -1.8593 -0.3658 0.3178 0.2539 -1.8460 0.2104 -2.1718 -4.9559 1.5213 0.9470 -2.1658 14.1358 -1.5501 -2.9238 4.0109 -1.3976 0.0000 0.0000 8.1360 -1.2111 15.3653 -13.1216 0.0000 0.0000 -0.0000 0.0000 -0.0000 -0.0000 -4.9406 -10.0613 -4.0517 7.7715 4.0864 1.1485 -0.0000 -0.0000 -10.9973 -2.2082 -17.7569 2.0392 -0.0000 -0.0000 0.0000 0.0000 0.0000 0.0000 3.6196 9.5438 -38.9133 13.0208 0.0000 0.0000 -9.2000 -6.1232 -3.6368 2.2965 0.0000 0.0000 3.4330 -5.4744 9.6077 10.3403 0.0000 0.0000 -7.2847 16.5125 4.3095 -3.9527 0.0000 -0.0000
 7.2014 -15.7996 37.9331 4.6756 0.8998 -176.9560 0.9735 -0.6923 -0.6033 0.7076 -0.1970 -0.1849 1.4545 -1.9230 -1.8738 -0.3660 0.3334 0.2338 -1.8758 0.1913 -2.1671 -5.0061 1.5133 0.9413 -2.1584 14.1027 -1.5201 -2.8294 3.9812 -1.3951 0.0000 0.0000 8.1093 -1.1945 15.1833 -13.1547 -0.0000 0.0000 -0.0000 -0.0000 -0.0000 0.0000 -4.9589 -10.0009 -4.0297 7.7969 4.1263 1.1457 -0.0000 -0.0000 -10.9733 -2.2324 -17.6960 2.0002 -0.0000 0.0000 -0.0000 0.0000 0.0000 0.0000 3.7994 9.5300 -39.4412 12.7490 0.0000 0.0000 -8.9452 -6.4927 -3.1732 2.4481 0.0000 0.0000 3.5145 -5.4745 9.6918 10.2252 0.0000 0.0000 -7.2624 16.4896 4.2375 -3.9364 0.0000 -0.0000
 7.1844 -15.7810 37.9356 4.6721 0.8726 -176.9484 0.9845 -0.7082 -0.6063 0.7101 -0.1871 -0.1831 1.4439 -1.8643 -1.8782 -0.3696 0.3513 0.2146 -1.9011 0.1737 -2.1658 -5.0464 1.4990 0.9296 -2.1602 14.0590 -1.4960 -2.7342 3.9689 -1.3924 0.0000 0.0000 8.0952 -1.1844 15.0319 -13.1759 0.0000 0.0000 -0.0000 0.0000 -0.0000 -0.0000 -4.9779 -9.9386 -4.0102 7.8126 4.1448 1.1433 -0.0000 -0.0000 -10.9650 -2.2495 -17.6734 1.9672 -0.0000 -0.0000 0.0000 0.0000 0.0000 0.0000 3.9625 9.5294 -39.9617 12.5213 0.0000 0.0000 -8.7184 -6.8383 -2.7018 2.5018 0.0000 0.0000 3.5855 -5.4718 9.7562 10.1369 0.0000 0.0000 -7.2564 16.4676 4.1863 -3.9216 0.0000 -0.0000
 7.1698 -15.7657 37.9370 4.6628 0.8472 -176.9474 1.0004 -0.7230 -0.6088 0.7132 -0.1891 -0.1831 1.4284 -1.7940 -1.8674 -0.3757 0.3692 0.1959 -1.9239 0.1570 -2.1673 -5.0781 1.4809 0.9124 -2.1711 14.0037 -1.4767 -2.6372 3.9747 -1.3924 0.0000 0.0000 8.0932 -1.1802 14.9132 -13.1847 0.0000 0.0000 -0.0000 0.0000 -0.0000 -0.0000 -4.9986 -9.8750 -3.9942 7.8193 4.1436 1.1430 -0.0000 -0.0000 -10.9727 -2.2612 -17.6847 1.9406 0.0000 0.0000 0.0000 -0.0000 0.0000 0.0000 4.0936 9.5335 -40.4487 12.3352 0.0000 0.0000 -8.5226 -7.1438 -2.2505 2.4788 0.0000 0.0000 3.6286 -5.4713 9.7971 10.0840 0.0000 0.0000 -7.2706 16.4457 4.1603 -3.9099 0.0000 -0.0000
 7.1570 -15.7529 37.9373 4.6572 0.8275 -176.9563 1.0277 -0.7360 -0.6094 0.7225 -0.1919 -0.1823 1.4048 -1.7241 -1.8449 -0.3841 0.3878 0.1797 -1.9448 0.1464 -2.1700 -5.0996 1.4582 0.8893 -2.1835 13.9482 -1.4645 -2.5435 3.9885 -1.3929 0.0000 0.0000 8.0996 -1.1796 14.8243 -13.1829 0.0000 -0.0000 0.0000 -0.0000 0.0000 0.0000 -5.0185 -9.8125 -3.9813 7.8164 4.1307 1.1433 -0.0000 -0.0000 -10.9931 -2.2692 -17.7215 1.9191 -0.0000 -0.0000 0.0000 -0.0000 -0.0000 0.0000 4.2027 9.5436 -40.8829 12.1875 0.0000 0.0000 -8.3613 -7.3991 -1.8380 2.4041 0.0000 0.0000 3.6593 -5.4669 9.8135 10.0588 0.0000 0.0000 -7.3017 16.4219 4.1650 -3.9026 0.0000 -0.0000
 7.1459 -15.7427 37.9370 4.6460 0.8094 -176.9757 1.0570 -0.7510 -0.6092 0.7332 -0.1929 -0.1802 1.3776 -1.6572 -1.8104 -0.3943 0.4069 0.1662 -1.9653 0.1424 -2.1720 -5.1145 1.4328 0.8618 -2.1957 13.8953 -1.4572 -2.4529 4.0070 -1.3964 0.0000 0.0000 8.1121 -1.1814 14.7595 -13.1719 0.0000 0.0000 -0.0000 0.0000 -0.0000 -0.0000 -5.0372 -9.7518 -3.9709 7.8051 4.1112 1.1441 -0.0000 -0.0000 -11.0230 -2.2739 -17.7750 1.9028 -0.0000 -0.0000 0.0000 -0.0000 -0.0000 0.0000 4.2798 9.5528 -41.2450 12.0720 0.0000 0.0000 -8.2339 -7.5969 -1.4858 2.3030 0.0000 0.0000 3.6667 -5.4621 9.8067 10.0632 0.0000 0.0000 -7.3496 16.3951 4.2003 -3.9007 0.0000 -0.0000
 7.1362 -15.7341 37.9363 4.6381 0.7905 -177.0069 1.0955 -0.7643 -0.6076 0.7456 -0.2025 -0.1791 1.3462 -1.5882 -1.7636 -0.4055 0.4246 0.1555 -1.9858 0.1465 -2.1723 -5.1222 1.4053 0.8321 -2.2036 13.8518 -1.4528 -2.3664 4.0229 -1.4032 0.0000 0.0000 8.1267 -1.1844 14.7103 -13.1542 -0.0000 -0.0000 -0.0000 -0.0000 -0.0000 0.0000 -5.0527 -9.6958 -3.9622 7.7883 4.0918 1.1455 -0.0000 -0.0000 -11.0586 -2.2761 -17.8324 1.8900 -0.0000 -0.0000 -0.0000 0.0000 0.0000 0.0000 4.3382 9.5542 -41.5254 11.9776 0.0000 0.0000 -8.1360 -7.7368 -1.2045 2.1989 0.0000 0.0000 3.6653 -5.4594 9.7851 10.0900 0.0000 0.0000 -7.4106 16.3656 4.2607 -3.9051 0.0000 -0.0000
 7.1271 -15.7267 37.9354 4.6277 0.7743 -177.0493 1.1360 -0.7783 -0.6057 0.7578 -0.2062 -0.1756 1.3141 -1.5272 -1.7092 -0.4171 0.4424 0.1470 -2.0080 0.1583 -2.1688 -5.1250 1.3776 0.8020 -2.2025 13.8207 -1.4510 -2.2875 4.0326 -1.4105 0.0000 0.0000 8.1388 -1.1858 14.6667 -13.1324 -0.0000 0.0000 -0.0000 -0.0000 -0.0000 0.0000 -5.0634 -9.6470 -3.9526 7.7671 4.0795 1.1455 -0.0000 -0.0000 -11.0948 -2.2788 -17.8858 1.8792 0.0000 0.0000 0.0000 0.0000 0.0000 0.0000 4.3735 9.5528 -41.7226 11.9026 0.0000 0.0000 -8.0661 -7.8221 -0.9975 2.1117 0.0000 0.0000 3.6531 -5.4523 9.7442 10.1324 0.0000 0.0000 -7.4812 16.3313 4.3509 -3.9149 0.0000 -0.0000
